<?xml version="1.0" encoding="UTF-8"?>
<svg width="512" height="512" viewBox="0 0 512 512" xmlns="http://www.w3.org/2000/svg">
  <circle cx="256" cy="256" r="240" fill="#2f7d68"/>
  <g transform="translate(113.55 72) scale(0.5686)">
<g
     id="g1"
     transform="translate(-254.93889,-187.52257)">
    <path
       style="fill:#ffffff"
       d="m 445,834.31999 c -8.39741,-0.86359 -19.08693,-3.79147 -26.5,-7.25841 -10.58177,-4.94887 -17.54516,-11.3384 -21.66195,-19.87676 -1.7727,-3.67665 -3.3587,-6.86956 -3.52444,-7.09536 -0.16574,-0.22579 -1.17388,0.3791 -2.24032,1.34421 -2.53921,2.29795 -6.14056,1.49604 -13.73006,-3.05726 -7.18418,-4.31013 -11.72047,-8.50897 -15.47323,-14.32219 -5.49716,-8.51539 -3.46995,-13.95136 10.14726,-27.20987 6.98525,-6.80125 9.48234,-9.82239 8.447,-10.21969 C 378.51475,745.87656 373,737.10669 373,734.75456 c 0,-3.66218 3.46287,-8.43141 13.98048,-19.25456 14.1315,-14.54204 24.34266,-28.49906 34.75168,-47.5 C 426.0447,660.12776 434,642.59003 434,640.95514 434,640.42861 430.44259,640 426.07236,640 c -12.02151,0 -22.22802,-1.75502 -35.52127,-6.10793 -6.6281,-2.17039 -12.65015,-4.32064 -13.38234,-4.77835 -1.0373,-0.64843 -0.3334,-2.68494 3.1878,-9.22295 7.56749,-14.051 11.2955,-24.75045 23.13255,-66.39077 12.9195,-45.44816 20.17604,-67.29975 28.5591,-86 18.74921,-41.82418 37.56818,-66.1642 66.66659,-86.22503 6.22415,-4.29101 7.23987,-5.34714 5.68208,-5.90818 C 503.35359,374.99105 500.25,373.81502 497.5,372.75339 480.55973,366.21365 366.68735,326 365.10913,326 c -0.50937,0 3.35598,9.5625 8.58968,21.25 13.00133,29.03359 23.72913,55.68428 26.49134,65.81149 1.92348,7.05214 2.30229,10.90288 2.30573,23.43851 0.004,13.01104 -0.30315,15.92818 -2.31315,22 -4.66838,14.1022 -15.17961,27.99131 -27.6002,36.46979 -23.99344,16.37828 -59.4004,17.16032 -85.33569,1.88482 -3.13258,-1.84503 -9.14411,-6.76433 -13.35897,-10.93176 -9.00176,-8.90047 -14.77923,-19.61728 -17.32176,-32.13069 -6.10282,-30.03593 4.76987,-57.92438 35.84725,-91.94816 5.19653,-5.6892 15.82481,-17.319 23.6184,-25.844 7.79359,-8.525 15.03857,-16.7139 16.09996,-18.19757 l 1.9298,-2.69756 -10.03194,-3.09574 c -5.51756,-1.70266 -19.13995,-5.74465 -30.27197,-8.9822 -16.48723,-4.79503 -20.65885,-6.37336 -22.49882,-8.51246 -3.0232,-3.51468 -2.84541,-6.08169 0.66429,-9.59139 2.08824,-2.08825 3.89733,-2.92308 6.33432,-2.92308 1.87619,0 17.26353,4.08727 34.1941,9.08282 17.71165,5.22602 31.15634,8.70934 31.66241,8.20327 0.50608,-0.50608 -1.69323,-3.52517 -5.17938,-7.11002 -9.60282,-9.87466 -15.86977,-25.59445 -15.91717,-39.92607 -0.0236,-7.12299 2.26406,-9.59025 7.42373,-8.0067 4.94963,1.51909 14.40281,9.33671 18.2991,15.13306 4.02944,5.99442 7.03044,15.49321 7.42777,23.51042 0.16663,3.36227 0.5877,6.11322 0.9357,6.11322 0.348,0 2.37421,-2.97779 4.50268,-6.6173 4.70118,-8.03867 12.28827,-15.17452 20.49359,-19.27477 14.96499,-7.47809 21.94226,-4.64465 18.41772,7.47936 -2.59239,8.91751 -5.82135,14.48772 -11.45062,19.75324 -5.60848,5.24607 -10.99699,8.02218 -18.8335,9.70281 -4.38008,0.93936 -5.23504,1.52223 -6.171,4.20713 -0.79731,2.28717 -0.78435,3.30342 0.0487,3.81828 0.62436,0.38588 24.14225,8.46187 52.26198,17.94665 28.11973,9.48478 57.20178,19.4751 64.62678,22.20071 15.57064,5.71575 39.96248,17.244 54.67244,25.83968 5.59484,3.26932 10.36982,5.94421 10.61107,5.94421 0.36371,0 -0.29439,-3.45192 -1.82987,-9.59817 -0.15089,-0.604 -3.01638,-1.38478 -6.36776,-1.73506 -3.35137,-0.35029 -8.26972,-1.73971 -10.92966,-3.08761 C 522.07338,363.00349 516,356.95312 516,354.4652 516,353.42537 514.85239,353 512.04705,353 c -5.26024,0 -9.31477,-1.87253 -8.50545,-3.92812 0.34039,-0.86453 1.71444,-5.0185 3.05345,-9.23104 1.33901,-4.21253 3.8904,-9.83753 5.66976,-12.5 2.96687,-4.43935 4.57293,-5.51499 19.36454,-12.96915 19.68336,-9.91935 39.57129,-17.77822 74.37065,-29.38818 30.3855,-10.13738 39.01578,-12.79953 44.17325,-13.62597 l 3.67324,-0.58861 2.1742,7.36554 c 3.16381,10.71808 7.51306,18.21844 14.10134,24.31802 4.50145,4.16755 5.5107,5.60743 4.51159,6.43662 C 671.73856,311.2918 665.72206,313 660.15456,313 c -7.46617,0 -8.8578,1.31474 -7.1038,6.7113 0.67727,2.08378 2.96792,6.68529 5.09032,10.22556 C 664.32466,340.25138 663.0736,348 655.22468,348 h -3.11785 l 2.94659,5.60155 c 1.62062,3.08085 2.94658,6.68085 2.94658,8 0,2.41967 -3.12649,6.39845 -5.02785,6.39845 -0.66389,0 -0.79812,2.24229 -0.37907,6.33241 0.52918,5.16516 0.27397,7.17971 -1.38452,10.92901 -3.06403,6.92675 -9.45295,9.59023 -14.72234,6.1376 -2.33553,-1.5303 -2.62029,-1.46089 -6.44981,1.57214 -4.37796,3.46741 -5.83227,3.43896 -11.89304,-0.23264 l -3.35663,-2.03344 -4.64337,2.28108 c -3.02767,1.48736 -7.37913,2.49555 -12.50571,2.89746 -7.4841,0.58673 -7.77183,0.69797 -5.98086,2.31244 1.03481,0.93283 16.62576,9.14202 34.64655,18.24263 26.02783,13.14423 32.88577,16.23206 33.35204,15.01696 C 660.463,429.35107 665.29641,427 668.81548,427 c 1.60314,0 4.06871,0.90767 5.47905,2.01703 2.16448,1.70259 3.43641,1.91453 8.15876,1.35951 5.58563,-0.65648 5.60061,-0.65094 9.41701,3.48297 2.52529,2.73538 4.67282,4.14049 6.32821,4.14049 3.21339,0 8.53567,3.68371 10.65279,7.37312 0.90678,1.58022 2.8862,4.1331 4.3987,5.67308 2.94573,2.99924 3.18973,4.35495 1.83425,10.1914 l -0.86803,3.73759 19.38401,11.08211 c 10.66121,6.09516 20.06256,12.05087 20.89189,13.23491 3.69784,5.27941 -0.46821,14.70779 -6.49884,14.70779 -2.46974,0 -19.28097,-9.34005 -37.96034,-21.09017 l -4.46707,-2.80997 -6.03293,5.74374 c -3.31812,3.15906 -9.07044,7.50509 -12.78294,9.65785 -3.7125,2.15276 -6.74297,4.3831 -6.73438,4.95633 0.009,0.57322 0.65633,3.74222 1.43942,7.04222 l 1.42379,6 -4.18941,4.33606 c -10.78394,11.16141 -32.35535,26.85265 -48.43942,35.23527 -5.74632,2.99484 -8.25,4.85322 -8.25,6.12364 0,3.83087 8.05555,36.29334 11.55332,46.5579 2.01422,5.91092 5.63872,15.06962 8.05445,20.35266 2.41573,5.28304 4.39223,10.09187 4.39223,10.68629 0,1.21642 -13.61898,-2.23071 -15.72784,-3.98091 -2.04669,-1.6986 -1.5508,-0.33018 3.60835,9.95726 10.84557,21.6263 26.32816,60.11446 33.48156,83.23183 3.69137,11.92925 8.6129,30.59184 8.62881,32.7207 0.005,0.67139 -2.49035,2.40315 -5.54526,3.84835 -3.83897,1.81613 -5.45765,3.12999 -5.24115,4.25418 0.50225,2.60793 4.8585,4.29759 9.98243,3.87188 4.73311,-0.39324 7.1245,-1.65473 25.97072,-13.69986 10.02704,-6.40855 16.23795,-8.41851 23.87415,-7.72609 7.40209,0.6712 12.36555,3.62917 15.10711,9.00306 4.41667,8.6574 0.36805,22.17738 -9.63727,32.18269 -11.02051,11.02051 -32.38079,22.61728 -47.28442,25.67133 -6.25102,1.28095 -6.59414,1.23854 -13.67647,-1.69053 -1.85909,-0.76887 -1.84572,-0.61782 0.26157,2.95376 1.22147,2.07024 1.97486,4.16209 1.67421,4.64855 -0.30065,0.48647 -5.59336,2.52528 -11.76157,4.5307 -12.69059,4.12599 -25.36487,5.50623 -29.71493,3.23599 -3.67513,-1.91799 -9.19624,-13.90982 -12.55687,-27.27343 -1.5949,-6.3422 -3.35957,-11.52154 -3.92148,-11.50964 -0.56191,0.0119 -5.04885,0.91191 -9.97099,2 -4.92214,1.0881 -9.96773,1.97836 -11.21242,1.97836 -2.40068,0 -2.20397,0.35046 -14.17709,-25.25845 -12.87788,-27.54408 -30.19456,-55.60801 -49.76051,-80.64334 -0.87291,-1.11692 -2.18467,0.51861 -6.36833,7.94013 -14.32699,25.41508 -36.17321,54.7945 -55.05448,74.03883 -9.84716,10.03651 -8.96669,9.70103 -19.22783,7.32615 -2.72065,-0.62968 -2.75,-0.58265 -2.75,4.40752 0,4.214 0.41911,5.37367 2.54696,7.04744 1.40083,1.10189 3.98833,2.29741 5.75,2.65672 1.76167,0.3593 7.92804,1.9887 13.70304,3.62089 16.99326,4.8028 21.98936,9.39812 21.99626,20.23176 0.003,5.46152 -0.25891,6.1303 -3.79101,9.66239 -6.34677,6.34678 -23.90223,9.96655 -40.20525,8.28995 z M 618.28324,473.33856 c 2.86922,-1.46379 9.94176,-4.59253 15.71676,-6.95275 l 10.5,-4.2913 0.62149,-7.29725 c 0.34182,-4.0135 0.34182,-7.58126 0,-7.92837 C 643.12886,444.8454 582,412.53551 582,413.50578 c 0,0.37054 2.28856,3.22082 5.0857,6.33396 6.47065,7.20167 14.28462,23.08528 20.61784,41.91026 2.63674,7.8375 4.92207,14.25 5.07851,14.25 0.15644,0 2.63198,-1.19765 5.50119,-2.66144 z M 476.65499,323.17126 c -3.06005,-3.38132 -2.05315,-6.27358 4.05493,-11.64758 16.20789,-14.25998 20.24526,-19.79096 22.3064,-30.55863 1.3701,-7.15758 0.4911,-13.85656 -3.735,-28.46505 -6.67742,-23.08204 -3.17422,-29.35705 21.26619,-38.09239 12.42055,-4.43928 13.05449,-4.78988 25.47014,-14.08622 14.49012,-10.84962 19.1072,-12.78821 30.48235,-12.79873 7.33796,-0.007 9.73868,0.39121 13,2.15515 5.98087,3.23486 13.57983,11.67173 20.10527,22.32219 9.30147,15.18135 15.2274,20.57873 26.89473,24.49589 6.43962,2.16202 25.34708,4.4274 37.5,4.49302 12.39475,0.0669 21.73832,1.46429 24.1035,3.60475 6.89071,6.23601 -5.95762,16.23674 -29.98354,23.33824 -5.70903,1.68746 -10.82031,3.0681 -11.35841,3.0681 -0.54425,0 -0.69995,-1.1093 -0.35091,-2.5 0.98827,-3.93756 -1.57401,-3.77638 -24.41064,1.53561 -39.4241,9.17038 -69.64793,20.04866 -104.5,37.61207 -13.75,6.9292 -27.82277,13.66814 -31.27283,14.97543 -7.91017,2.99731 -17.12224,3.25531 -19.57218,0.54815 z"
       id="path1" />
  </g>
  </g>
</svg>
